<svg xmlns="http://www.w3.org/2000/svg" viewBox="0 0 384 512">
    <!--!Font Awesome Free 6.5.2 by @fontawesome - https://fontawesome.com License - https://fontawesome.com/license/free Copyright 2024 Fonticons, Inc.-->
    <path fill="currentcolor"
        d="M360 0H24C10.7 0 0 10.7 0 24v16c0 13.3 10.7 24 24 24 0 91 51 167.7 120.8 192C75 280.3 24 357 24 448c-13.3 0-24 10.7-24 24v16c0 13.3 10.7 24 24 24h336c13.3 0 24-10.7 24-24v-16c0-13.3-10.7-24-24-24 0-91-51-167.7-120.8-192C309 231.7 360 155 360 64c13.3 0 24-10.7 24-24V24c0-13.3-10.7-24-24-24zm-64 448H88c0-77.5 46.2-144 104-144 57.8 0 104 66.5 104 144z" />
</svg>